# xmcd CD database file
#
# Track frame offsets:
#	150
#	15570
#	29952
#	51613
#	66285
#	80486
#	93576
#	109627
#	126063
#	145371
#	162141
#	177265
#	190441
#	205944
#	219022
#	236531
#
# Disc length: 3395 seconds
#
# Revision: 0
# Processed by: cddbd v1.5.2PL0 Copyright (c) Steve Scherf et al.
# Submitted via: Feurio! 1.68 - http://www.feurio.com
#
DISCID=e80d4110
DTITLE=Brooks and Dunn - Greatest Hits Collection
DYEAR=1900
DGENRE=Country
TTITLE0=My Maria
TTITLE1=Honky Tonk Truth
TTITLE2=You're Gonna Miss Me When I'm Gone
TTITLE3=Boot Scootin' Boogie
TTITLE4=He's Got You
TTITLE5=Hard Working Man
TTITLE6=That Ain't No Way To Go
TTITLE7=Rock My World
TTITLE8=Neon Moon
TTITLE9=Lost And Found
TTITLE10=She's Not The Creatin' Kind
TTITLE11=Brand New Man
TTITLE12=Days Of Thunder
TTITLE13=We'll Burn That Bridge
TTITLE14=She Used To Be Mine
TTITLE15=Mama Don't Get Dressed Up For Nothing
EXTD=
EXTT0=
EXTT1=
EXTT2=
EXTT3=
EXTT4=
EXTT5=
EXTT6=
EXTT7=
EXTT8=
EXTT9=
EXTT10=
EXTT11=
EXTT12=
EXTT13=
EXTT14=
EXTT15=
PLAYORDER=
